# AST/ASF file generated using VICON BodyLanguage
# -----------------------------------------------
:version 1.10
:name VICON
:units
  mass 1.0
  length 0.45
  angle deg
:documentation
   .ast/.asf automatically generated from VICON data using
   VICON BodyBuilder and BodyLanguage model FoxedUp or BRILLIANT.MOD
:root
   order TX TY TZ RX RY RZ
   axis XYZ
   position 0 0 0  
   orientation 0 0 0 
:bonedata
  begin
     id 1 
     name lhipjoint
     direction 0.588788 -0.725889 0.355548 
     length 2.37778 
     axis 0 0 0  XYZ
  end
  begin
     id 2 
     name lfemur
     direction 0.34202 -0.939693 0  
     length 6.86393  
     axis 0 0 20  XYZ
    dof rx ry rz
    limits (-160.0 20.0)
           (-70.0 70.0)
           (-60.0 70.0)
  end
  begin
     id 3 
     name ltibia
     direction 0.34202 -0.939693 0   
     length 7.32851   
     axis 0 0 20   XYZ
    dof rx
    limits (-10.0 170.0)
  end
  begin
     id 4 
     name lfoot
     direction 0.0626533 -0.172138 0.983078   
     length 1.98929   
     axis -90 7.62852e-016 20   XYZ
    dof rx rz
    limits (-45.0 90.0)
           (-70.0 20.0)
  end
  begin
     id 5 
     name ltoes
     direction 1.53647e-011 -4.21734e-011 1   
     length 1.00479   
     axis -90 7.62852e-016 20   XYZ
    dof rx
    limits (-90.0 20.0)
  end
  begin
     id 6 
     name rhipjoint
     direction -0.59141 -0.724168 0.354705   
     length 2.38343  
     axis 0 0 0  XYZ 
  end
  begin
     id 7 
     name rfemur
     direction -0.34202 -0.939693 0   
     length 6.95589   
     axis 0 0 -20   XYZ
    dof rx ry rz
    limits (-160.0 20.0)
           (-70.0 70.0)
           (-70.0 60.0)
  end
  begin
     id 8 
     name rtibia
     direction -0.34202 -0.939693 0   
     length 7.32327   
     axis 0 0 -20   XYZ
    dof rx
    limits (-10.0 170.0)
 end
 begin
     id 9 
     name rfoot
     direction -0.0660461 -0.18146 0.981178   
     length 1.85272  
     axis -90 -7.62852e-016 -20   XYZ
    dof rx rz
    limits (-45.0 90.0)
           (-20.0 70.0)
  end
  begin
     id 10 
     name rtoes
     direction -1.53586e-011 -4.21988e-011 1   
     length 0.93746   
     axis -90 -7.62852e-016 -20   XYZ
    dof rx
    limits (-90.0 20.0)
  end
  begin
     id 11 
     name lowerback
     direction -0.0107982 0.991059 0.13299   
     length 1.98691   
     axis 0 0 0   XYZ
    dof rx ry rz
    limits (-20.0 45.0)
           (-30.0 30.0)
           (-30.0 30.0)
  end
  begin
     id 12 
     name upperback
     direction 0.0076296 0.999916 0.0104576   
     length 1.99501   
     axis 0 0 0   XYZ
    dof rx ry rz
    limits (-20.0 45.0)
           (-30.0 30.0)
           (-30.0 30.0)
  end
  begin
     id 13 
     name thorax
     direction 0.01176 0.998615 -0.0512909   
     length 2.03144   
     axis 0 0 0   XYZ
    dof rx ry rz
    limits (-20.0 45.0)
           (-30.0 30.0)
           (-30.0 30.0)
  end
  begin
     id 14 
     name lowerneck
     direction -0.0171909 0.999644 0.0204011   
     length 1.71818   
     axis 0 0 0   XYZ
    dof rx ry rz
    limits (-20.0 45.0)
           (-30.0 30.0)
           (-30.0 30.0)
  end
  begin
     id 15 
     name upperneck
     direction 0.0250902 0.997482 -0.0663316   
     length 1.66199   
     axis 0 0 0   XYZ
    dof rx ry rz
    limits (-20.0 45.0)
           (-30.0 30.0)
           (-30.0 30.0)
  end
  begin
     id 16
     name head
     direction 0.00881535 0.99956 -0.0283365  
     length 1.81545  
     axis 0 0 0   XYZ
    dof rx ry rz
    limits (-20.0 45.0)
           (-30.0 30.0)
           (-30.0 30.0)
  end
  begin
     id 17 
     name lclavicle
     direction 0.840411 0.486876 -0.238035  
     length 3.30409  
     axis 0 0 0   XYZ
    dof ry rz
    limits (-20.0 10.0)
           (0.0 20.0)
  end
  begin
     id 18 
     name lhumerus
     direction 1 -4.48977e-011 -5.16239e-027   
     length 4.62672   
     axis 180 -30 -90   XYZ
    dof rx ry rz
    limits (-60.0 90.0)
           (-90.0 90.0)
           (-90.0 90.0)
  end
  begin
     id 19
     name lradius
     direction 1 -4.48977e-011 -8.71171e-027   
     length 3.11018   
     axis 180 -30 -90   XYZ
    dof rx
    limits (-10.0 170.0)
  end
  begin
     id 20
     name lwrist
     direction 1 -4.48912e-011 -1.03764e-026   
     length 1.55509   
     axis 9.09556e-015 90 90   XYZ
    dof ry
    limits (-180.0 0.0)
 end
  begin
     id 21 
     name lhand
     direction 1 -4.49072e-011 -2.07528e-026   
     length 0.743834   
     axis 1.3242e-014 90 90   XYZ
    dof rx rz
    limits (-90.0 90.0)
           (-45.0 45.0)
  end
  begin
     id 22 
     name lfingers
     direction 1 -4.48909e-011 -4.15056e-026   
     length 0.599698   
     axis 2.64841e-014 90 90   XYZ
    dof rx
    limits (0.0 90.0)
  end
  begin
     id 23
     name lthumb
     direction 0.707107 -6.35013e-011 0.707107   
     length 0.86105   
     axis -90 45 2.85299e-015   XYZ
    dof rx rz
    limits (-45.0 45.0)
           (-45.0 45.0)
  end
  begin
     id 24 
     name rclavicle
     direction -0.835208 0.500237 -0.228452   
     length 3.2716  
     axis 0 0 0   XYZ 
    dof ry rz
    limits (-10.0 20.0)
           (-20.0 0.0)
  end
  begin
     id 25 
     name rhumerus
     direction -1 -4.48978e-011 -5.1953e-028  
     length 4.55919   
     axis 180 30 90   XYZ
    dof rx ry rz
    limits (-90.0 60.0)
           (-90.0 90.0)
           (-90.0 90.0)
  end
  begin
     id 26 
     name rradius
     direction -1 -4.48961e-011 -5.99546e-027   
     length 3.22748   
     axis 180 30 90   XYZ
    dof rx
    limits (-10.0 170.0)
  end
  begin
     id 27 
     name rwrist
     direction -1 -4.48986e-011 -1.03764e-026   
     length 1.61374   
     axis 9.09556e-015 -90 -90   XYZ
    dof ry
    limits (-180.0 0.0)
  end
  begin
     id 28
     name rhand
     direction -1 -4.4899e-011 -2.07528e-026   
     length 0.700882   
     axis 1.3242e-014 -90 -90   XYZ
    dof rx rz
    limits (-90.0 90.0)
           (-45.0 45.0)
  end
  begin
     id 29
     name rfingers
     direction -1 -4.48991e-011 -4.15056e-026   
     length 0.565069   
     axis 2.64841e-014 -90 -90   XYZ
    dof rx
    limits (0.0 90.0)
  end
  begin
     id 30
     name rthumb
     direction -0.707107 -6.34804e-011 0.707107   
     length 0.811329   
     axis -90 -45 -2.85299e-015   XYZ
    dof rx rz
    limits (-45.0 45.0)
           (-45.0 45.0)
  end
:hierarchy
  begin
    root lhipjoint rhipjoint lowerback
    lhipjoint lfemur
    lfemur ltibia
    ltibia lfoot
    lfoot ltoes
    rhipjoint rfemur
    rfemur rtibia
    rtibia rfoot
    rfoot rtoes
    lowerback upperback
    upperback thorax
    thorax lowerneck lclavicle rclavicle
    lowerneck upperneck
    upperneck head
    lclavicle lhumerus
    lhumerus lradius
    lradius lwrist
    lwrist lhand lthumb
    lhand lfingers
    rclavicle rhumerus
    rhumerus rradius
    rradius rwrist
    rwrist rhand rthumb
    rhand rfingers
  end

#!OML:ASF F:\VICON\USERDATA\INSTALL\SteveWalk\SteveWalk.ASF
:FULLY-SPECIFIED
:DEGREES
755
root 6.13585 16.8173 1.62761 196.528 -26.8765 -180.089
lowerback -12.7436 3.69669 2.27989
upperback -2.6139 4.2053 2.11072
thorax 4.38731 1.97128 1.60251
lowerneck 10.3477 18.0904 9.118
upperneck 4.1073 25.0334 -10.2755
head 2.06276 12.6746 -4.18317
rclavicle -5.87409e-014 1.74931e-014
rhumerus -40.5725 -23.9634 -64.9245
rradius 31.874
rwrist -21.0691
rhand -13.9315 -39.5267
rfingers 7.12502
rthumb 12.1952 -789.151
lclavicle -5.87409e-014 1.74931e-014
lhumerus -29.8193 -7.76009 89.2309
lradius 18.9223
lwrist -17.3385
lhand -10.0615 -14.9173
lfingers 7.12502
lthumb 15.9244 14.448
rfemur -29.0001 -5.74804 22.4746
rtibia 27.1919
rfoot -16.81 -2.32713
rtoes -21.9488
lfemur -29.1716 -4.84903 -12.0088
ltibia 65.7764
lfoot 4.88396 -5.81248
ltoes -6.38129
756
root 6.14474 16.8314 1.50476 196.527 -26.6558 -180.07
lowerback -12.6242 3.80682 2.22217
upperback -2.59587 4.36987 2.07262
thorax 4.33809 2.05427 1.6146
lowerneck 10.1529 17.8967 9.27152
upperneck 4.26494 24.7884 -10.1562
head 2.11781 12.548 -4.15491
rclavicle 6.56983e-014 4.45278e-014
rhumerus -39.6841 -23.6221 -65.2363
rradius 31.8241
rwrist -21.3885
rhand -14.198 -38.8456
rfingers 7.12502
rthumb 11.9382 -788.485
lclavicle 6.56983e-014 4.45278e-014
lhumerus -30.0932 -7.09758 88.6663
lradius 18.8024
lwrist -17.728
lhand -10.1577 -16.2065
lfingers 7.12502
lthumb 15.8318 13.1662
rfemur -28.5761 -5.57403 22.6136
rtibia 26.8943
rfoot -17.0757 -1.81375
rtoes -19.812
lfemur -30.4803 -4.31985 -12.2999
ltibia 67.0522
lfoot 4.04016 -4.62263
ltoes -8.1923
757
root 6.14252 16.8354 1.3773 196.606 -26.6127 -180.108
lowerback -12.6269 3.87325 2.24161
upperback -2.64246 4.45681 2.02108
thorax 4.29564 2.09654 1.56229
lowerneck 10.0111 17.6341 9.31863
upperneck 4.51065 24.4361 -9.91993
head 2.15428 12.3648 -4.09387
rclavicle -9.24349e-014 -1.74931e-014
rhumerus -38.8142 -22.9922 -65.5871
rradius 31.6769
rwrist -21.9515
rhand -14.3678 -38.8802
rfingers 7.12502
rthumb 11.7744 -788.529
lclavicle -9.24349e-014 -1.74931e-014
lhumerus -30.6466 -6.80816 88.3304
lradius 19.0122
lwrist -17.6948
lhand -10.2252 -16.6501
lfingers 7.12502
lthumb 15.7667 12.7278
rfemur -28.198 -5.7231 22.7491
rtibia 26.6774
rfoot -17.3571 -1.03721
rtoes -16.1997
lfemur -31.5969 -4.02912 -12.6074
ltibia 68.0686
lfoot 3.2673 -3.37467
ltoes -8.58984
758
root 6.13646 16.8262 1.256 196.74 -26.405 -180.42
lowerback -12.6552 3.92654 1.97851
upperback -2.64101 4.57025 1.93287
thorax 4.29822 2.15213 1.63703
lowerneck 9.82344 17.2605 9.11696
upperneck 4.7487 23.8974 -9.51112
head 2.12882 12.0833 -3.9697
rclavicle 3.1408e-014 3.4191e-014
rhumerus -38.3361 -22.4107 -65.8544
rradius 32.3521
rwrist -22.3428
rhand -14.0575 -40.9046
rfingers 7.12502
rthumb 12.0737 -790.536
lclavicle 3.1408e-014 3.4191e-014
lhumerus -31.3038 -6.62513 88.134
lradius 19.3401
lwrist -17.5285
lhand -10.307 -16.5419
lfingers 7.12502
lthumb 15.688 12.8422
rfemur -27.6645 -6.03941 22.6463
rtibia 26.5441
rfoot -18.1931 -1.01141
rtoes -18.8376
lfemur -32.4936 -3.82704 -13.2635
ltibia 68.8704
lfoot 2.47481 -2.11472
ltoes -8.44588
759
root 6.13915 16.8264 1.12984 196.92 -25.9226 -180.919
lowerback -12.6107 3.98769 1.35785
upperback -2.6053 4.75033 1.83375
thorax 4.26673 2.24012 1.90591
lowerneck 9.4165 16.9255 8.69908
upperneck 5.10191 23.3785 -8.95845
head 2.13543 11.8014 -3.75451
rclavicle -1.04362e-014 -3.02153e-014
rhumerus -37.7101 -21.8784 -66.1423
rradius 32.5033
rwrist -22.996
rhand -14.7359 -40.3082
rfingers 7.12502
rthumb 11.4194 -789.977
lclavicle -1.04362e-014 -3.02153e-014
lhumerus -31.7653 -5.89614 87.7393
lradius 19.3256
lwrist -17.5347
lhand -10.705 -16.8156
lfingers 7.12502
lthumb 15.3047 12.5981
rfemur -27.1612 -5.86319 22.2364
rtibia 26.5734
rfoot -18.688 -0.871269
rtoes -18.5414
lfemur -33.3557 -3.45225 -14.1822
ltibia 69.4451
lfoot 1.47334 -1.11728
ltoes -8.28647
760
root 6.14245 16.8345 1.00179 197.011 -25.5707 -181.157
lowerback -12.6204 4.0248 1.03047
upperback -2.52413 4.8521 1.79552
thorax 4.33088 2.29041 2.06888
lowerneck 8.74828 16.6658 8.28598
upperneck 5.79195 22.9606 -8.35816
head 2.29232 11.5598 -3.47795
rclavicle -8.82604e-014 2.54444e-014
rhumerus -36.8285 -21.5621 -66.4082
rradius 32.6425
rwrist -23.3161
rhand -14.844 -40.1439
rfingers 7.12502
rthumb 11.3152 -789.819
lclavicle -8.82604e-014 2.54444e-014
lhumerus -32.0547 -5.12096 87.2845
lradius 19.1931
lwrist -17.3684
lhand -11.1571 -17.2278
lfingers 7.12502
lthumb 14.8692 12.2187
rfemur -26.8383 -5.71804 22.0973
rtibia 26.7299
rfoot -19.1629 -0.437141
rtoes -16.6432
lfemur -34.2685 -3.06988 -14.8163
ltibia 69.8349
lfoot 1.00859 -0.336395
ltoes -5.43027
761
root 6.14523 16.8281 0.885015 197.241 -25.5949 -181.517
lowerback -12.4963 3.89447 0.782023
upperback -2.57667 4.72733 1.67216
thorax 4.20098 2.23022 2.04695
lowerneck 8.40282 16.3465 8.14717
upperneck 6.30143 22.4971 -7.91941
head 2.39422 11.3111 -3.3152
rclavicle 4.12478e-014 2.06736e-014
rhumerus -36.0389 -21.0898 -66.8406
rradius 32.7789
rwrist -23.5481
rhand -14.8689 -39.9206
rfingers 7.12502
rthumb 11.2912 -789.597
lclavicle 4.12478e-014 2.06736e-014
lhumerus -32.2875 -3.41966 86.3096
lradius 18.7436
lwrist -18.508
lhand -11.9407 -18.1989
lfingers 7.12502
lthumb 14.1141 11.3017
rfemur -26.6866 -6.11048 21.9642
rtibia 26.9022
rfoot -19.786 -0.00452506
rtoes -16.1115
lfemur -35.3409 -3.1253 -15.469
ltibia 70.1078
lfoot 0.866127 0.323011
ltoes -2.91784
762
root 6.15884 16.8155 0.770029 197.638 -25.755 -181.967
lowerback -12.3866 3.71499 0.349052
upperback -2.69794 4.55714 1.53812
thorax 3.99486 2.14531 2.10824
lowerneck 7.90211 15.9333 8.03882
upperneck 6.84566 21.8745 -7.11
head 2.76315 10.9994 -3.36561
rclavicle 8.66701e-014 0
rhumerus -35.2072 -20.713 -67.2331
rradius 32.6869
rwrist -23.5525
rhand -14.8778 -39.6877
rfingers 7.12502
rthumb 11.2826 -789.364
lclavicle 8.66701e-014 0
lhumerus -32.6705 -2.124 85.4355
lradius 18.4692
lwrist -19.2515
lhand -12.7982 -19.5358
lfingers 7.12502
lthumb 13.2877 10.0206
rfemur -26.5782 -6.53113 21.8416
rtibia 27.0181
rfoot -20.3235 0.0313476
rtoes -16.2542
lfemur -36.6924 -3.31465 -16.1332
ltibia 70.2467
lfoot 0.376121 0.648656
ltoes -2.75356
763
root 6.16729 16.8117 0.649572 197.906 -25.8215 -182.122
lowerback -12.6437 3.59611 0.0830241
upperback -2.62259 4.43251 1.54746
thorax 4.19692 2.07981 2.26823
lowerneck 7.14688 15.5137 7.77381
upperneck 7.54325 21.2536 -6.7022
head 2.99024 10.6623 -3.13259
rclavicle 5.54609e-014 2.94201e-014
rhumerus -34.1337 -20.4042 -67.5705
rradius 32.7845
rwrist -23.681
rhand -14.8255 -40.3446
rfingers 7.12502
rthumb 11.333 -790.018
lclavicle 5.54609e-014 2.94201e-014
lhumerus -33.0937 -2.14056 85.2652
lradius 18.7571
lwrist -18.1701
lhand -13.3254 -20.551
lfingers 7.12502
lthumb 12.7795 9.03787
rfemur -26.3065 -6.8329 22.0054
rtibia 27.0828
rfoot -20.7976 -0.0983583
rtoes -17.077
lfemur -37.9871 -3.23112 -16.5815
ltibia 70.1631
lfoot -0.384185 0.828524
ltoes -3.54954
764
root 6.16385 16.8094 0.524045 197.85 -25.8667 -182.01
lowerback -12.7152 3.53761 0.233033
upperback -2.62791 4.33533 1.50588
thorax 4.24862 2.0324 2.13068
lowerneck 6.73174 15.0279 7.89422
upperneck 8.31214 20.5723 -6.31684
head 3.23573 10.3096 -2.99648
rclavicle -1.88845e-015 -2.94201e-014
rhumerus -33.3899 -20.1449 -67.9493
rradius 33.0304
rwrist -23.7191
rhand -14.6346 -40.9648
rfingers 7.12502
rthumb 11.5172 -790.628
lclavicle -1.88845e-015 -2.94201e-014
lhumerus -33.8622 -2.25909 85.0375
lradius 19.3791
lwrist -16.9633
lhand -13.3878 -20.4056
lfingers 7.12502
lthumb 12.7194 9.18702
rfemur -25.7306 -7.47993 22.4487
rtibia 27.1141
rfoot -21.2433 0.246065
rtoes -17.1514
lfemur -38.8207 -3.06954 -16.8233
ltibia 69.852
lfoot -1.41775 0.990299
ltoes -4.42409
